<?xml version="1.0" standalone="no"?>
<!DOCTYPE svg PUBLIC "-//W3C//DTD SVG 20010904//EN"
 "http://www.w3.org/TR/2001/REC-SVG-20010904/DTD/svg10.dtd">
<svg version="1.0" xmlns="http://www.w3.org/2000/svg"
 width="64.000000pt" height="64.000000pt" viewBox="0 0 64.000000 64.000000"
 preserveAspectRatio="xMidYMid meet">

<g transform="translate(0.000000,64.000000) scale(0.100000,-0.100000)"
fill="#000000" stroke="none">
<path d="M182 542 l-132 -47 2 -174 3 -174 133 -48 133 -49 132 49 132 48 3
174 2 174 -127 44 c-71 24 -132 46 -138 47 -5 2 -70 -18 -143 -44z m120 -151
l-3 -149 -98 -36 c-54 -20 -101 -36 -104 -36 -4 0 -7 67 -7 148 l0 148 103 36
c56 20 104 37 107 37 3 1 4 -66 2 -148z m248 -73 c0 -87 -4 -148 -10 -148 -5
0 -21 5 -35 12 -24 11 -25 15 -25 99 l0 87 -31 11 c-18 6 -34 11 -35 11 -2 0
-4 -38 -4 -85 0 -47 -2 -85 -4 -85 -1 0 -17 5 -35 11 l-31 11 0 149 0 148 105
-36 105 -36 0 -149z"/>
<path d="M207 423 c-4 -3 -7 -19 -7 -35 0 -43 34 -34 38 10 3 31 -13 44 -31
25z"/>
<path d="M168 409 c-18 -10 -26 -69 -10 -69 21 1 33 20 30 48 -3 26 -6 29 -20
21z"/>
<path d="M218 352 c-23 -5 -25 -62 -3 -62 18 0 28 20 23 47 -2 12 -10 17 -20
15z"/>
<path d="M163 333 c-7 -2 -13 -18 -13 -35 0 -43 34 -35 38 10 3 31 -1 35 -25
25z"/>
</g>
</svg>
